<svg width="16" height="16" viewBox="0 0 16 16" fill="#586A84" id="icon-reports" xmlns="http://www.w3.org/2000/svg"><mask id="mask0_2229_4429" style="mask-type:alpha" maskUnits="userSpaceOnUse" x="0" y="0" width="16" height="16"><rect width="16" height="16"/></mask><g mask="url(#mask0_2229_4429)"><path fill-rule="evenodd" clip-rule="evenodd" d="M4.66667 2C4.22464 2 3.80072 2.15804 3.48816 2.43934C3.17559 2.72064 3 3.10218 3 3.5V12.5C3 12.8978 3.17559 13.2794 3.48816 13.5607C3.80072 13.842 4.22464 14 4.66667 14H11.3333C11.7754 14 12.1993 13.842 12.5118 13.5607C12.8244 13.2794 13 12.8978 13 12.5V6.0605C12.9999 5.66271 12.8242 5.28124 12.5117 5L9.66667 2.4395C9.35418 2.15818 8.93033 2.00008 8.48833 2H4.66667ZM6.33333 9.5C6.33333 9.30109 6.24554 9.11032 6.08926 8.96967C5.93298 8.82902 5.72101 8.75 5.5 8.75C5.27899 8.75 5.06702 8.82902 4.91074 8.96967C4.75446 9.11032 4.66667 9.30109 4.66667 9.5V11.75C4.66667 11.9489 4.75446 12.1397 4.91074 12.2803C5.06702 12.421 5.27899 12.5 5.5 12.5C5.72101 12.5 5.93298 12.421 6.08926 12.2803C6.24554 12.1397 6.33333 11.9489 6.33333 11.75V9.5ZM8 7.25C8.22101 7.25 8.43297 7.32902 8.58926 7.46967C8.74554 7.61032 8.83333 7.80109 8.83333 8V11.75C8.83333 11.9489 8.74554 12.1397 8.58926 12.2803C8.43297 12.421 8.22101 12.5 8 12.5C7.77899 12.5 7.56702 12.421 7.41074 12.2803C7.25446 12.1397 7.16667 11.9489 7.16667 11.75V8C7.16667 7.80109 7.25446 7.61032 7.41074 7.46967C7.56702 7.32902 7.77899 7.25 8 7.25ZM11.3333 6.5C11.3333 6.30109 11.2455 6.11032 11.0893 5.96967C10.933 5.82902 10.721 5.75 10.5 5.75C10.279 5.75 10.067 5.82902 9.91074 5.96967C9.75446 6.11032 9.66667 6.30109 9.66667 6.5V11.75C9.66667 11.9489 9.75446 12.1397 9.91074 12.2803C10.067 12.421 10.279 12.5 10.5 12.5C10.721 12.5 10.933 12.421 11.0893 12.2803C11.2455 12.1397 11.3333 11.9489 11.3333 11.75V6.5Z"/></g></svg>