<svg width="16" height="16" viewBox="0 0 16 16" fill="#586A84" id="icon-notes-management" xmlns="http://www.w3.org/2000/svg"><mask id="mask0_2229_4450" style="mask-type:alpha" maskUnits="userSpaceOnUse" x="0" y="0" width="16" height="16"><rect width="16" height="16"/></mask><g mask="url(#mask0_2229_4450)"><path d="M10 5.5C10 6.69347 9.52589 7.83807 8.68198 8.68198C7.83807 9.52589 6.69347 10 5.5 10C4.30653 10 3.16193 9.52589 2.31802 8.68198C1.47411 7.83807 1 6.69347 1 5.5C1 4.30653 1.47411 3.16193 2.31802 2.31802C3.16193 1.47411 4.30653 1 5.5 1C6.69347 1 7.83807 1.47411 8.68198 2.31802C9.52589 3.16193 10 4.30653 10 5.5ZM6 3.5C6 3.36739 5.94732 3.24021 5.85355 3.14645C5.75979 3.05268 5.63261 3 5.5 3C5.36739 3 5.24021 3.05268 5.14645 3.14645C5.05268 3.24021 5 3.36739 5 3.5V5H3.5C3.36739 5 3.24021 5.05268 3.14645 5.14645C3.05268 5.24021 3 5.36739 3 5.5C3 5.63261 3.05268 5.75979 3.14645 5.85355C3.24021 5.94732 3.36739 6 3.5 6H5V7.5C5 7.63261 5.05268 7.75979 5.14645 7.85355C5.24021 7.94732 5.36739 8 5.5 8C5.63261 8 5.75979 7.94732 5.85355 7.85355C5.94732 7.75979 6 7.63261 6 7.5V6H7.5C7.63261 6 7.75979 5.94732 7.85355 5.85355C7.94732 5.75979 8 5.63261 8 5.5C8 5.36739 7.94732 5.24021 7.85355 5.14645C7.75979 5.05268 7.63261 5 7.5 5H6V3.5ZM5.5 11C6.44142 11.0002 7.36714 10.7587 8.18852 10.2987C9.0099 9.83867 9.69945 9.17552 10.1912 8.37272C10.6829 7.56991 10.9603 6.65433 10.9969 5.71362C11.0334 4.7729 10.8279 3.83855 10.4 3H12.5C13.163 3 13.7989 3.26339 14.2678 3.73223C14.7366 4.20107 15 4.83696 15 5.5V9H12C11.2044 9 10.4413 9.31607 9.87868 9.87868C9.31607 10.4413 9 11.2044 9 12V15H5.5C4.83696 15 4.20107 14.7366 3.73223 14.2678C3.26339 13.7989 3 13.163 3 12.5V10.4C3.75 10.784 4.6 11 5.5 11ZM10 14.985C10.3204 14.9387 10.6171 14.7899 10.846 14.561L14.561 10.846C14.7899 10.6171 14.9387 10.3204 14.985 10H12C11.4696 10 10.9609 10.2107 10.5858 10.5858C10.2107 10.9609 10 11.4696 10 12V14.985Z" fill="#586A84"/></g></svg>