<svg width="16" height="16" viewBox="0 0 16 16" fill="#586A84" xmlns="http://www.w3.org/2000/svg"><mask id="mask0_2229_4392" style="mask-type:alpha" maskUnits="userSpaceOnUse" x="0" y="0" width="16" height="16"><rect width="16" height="16"/></mask><g mask="url(#mask0_2229_4392)"><path fill-rule="evenodd" clip-rule="evenodd" d="M11.75 1C12.3467 1 12.919 1.23705 13.341 1.65901C13.7629 2.08096 14 2.65325 14 3.24999V15.2499C13.9999 15.3912 13.9599 15.5295 13.8847 15.6491C13.8094 15.7686 13.7019 15.8645 13.5745 15.9256C13.4472 15.9867 13.3052 16.0106 13.1648 15.9946C13.0245 15.9786 12.8915 15.9232 12.7812 15.8349L11.375 14.7099L9.96875 15.8349C9.82468 15.9503 9.64311 16.0086 9.45879 15.9985C9.27447 15.9884 9.10034 15.9106 8.96975 15.7802L8 14.8104L7.03025 15.7802C6.89975 15.9107 6.72568 15.9886 6.54136 15.9988C6.35703 16.0091 6.17541 15.951 6.03125 15.8357L4.625 14.7099L3.21875 15.8349C3.10848 15.9232 2.97552 15.9786 2.83517 15.9946C2.69482 16.0106 2.5528 15.9867 2.42545 15.9256C2.2981 15.8645 2.19061 15.7686 2.11534 15.6491C2.04007 15.5295 2.00009 15.3912 2 15.2499V3.24999C2 2.65325 2.23705 2.08096 2.65901 1.65901C3.08097 1.23705 3.65326 1 4.25 1H11.75ZM8 8.49996H5.75C5.55109 8.49996 5.36032 8.57897 5.21967 8.71963C5.07902 8.86028 5 9.05104 5 9.24995C5 9.44886 5.07902 9.63963 5.21967 9.78028C5.36032 9.92093 5.55109 9.99995 5.75 9.99995H8C8.19891 9.99995 8.38968 9.92093 8.53033 9.78028C8.67098 9.63963 8.75 9.44886 8.75 9.24995C8.75 9.05104 8.67098 8.86028 8.53033 8.71963C8.38968 8.57897 8.19891 8.49996 8 8.49996ZM10.25 5.49997H5.75C5.55884 5.50019 5.37498 5.57338 5.23597 5.70461C5.09697 5.83584 5.01332 6.01519 5.00212 6.20602C4.99092 6.39685 5.05301 6.58475 5.1757 6.73134C5.29839 6.87793 5.47243 6.97214 5.66225 6.99472L5.75 6.99997H10.25C10.4412 6.99975 10.625 6.92656 10.764 6.79533C10.903 6.6641 10.9867 6.48475 10.9979 6.29392C11.0091 6.10309 10.947 5.91519 10.8243 5.7686C10.7016 5.62201 10.5276 5.5278 10.3377 5.50522L10.25 5.49997Z"/></g></svg>