<svg width="23" height="19" viewBox="0 0 23 19" fill="none" xmlns="http://www.w3.org/2000/svg">
<path d="M11.5 13.9917V17.5934C11.5005 17.8716 11.585 18.1433 11.743 18.3745C11.9009 18.6057 12.1252 18.7859 12.3877 18.8925C12.6501 18.9991 12.9388 19.0272 13.2175 18.9733C13.4962 18.9195 13.7524 18.7861 13.9538 18.5899L23 9.8523L13.9538 1.11613C13.8206 0.98497 13.6623 0.880887 13.4879 0.809864C13.3134 0.738841 13.1264 0.702278 12.9375 0.702278C12.7486 0.702278 12.5616 0.738841 12.3871 0.809864C12.2127 0.880887 12.0544 0.98497 11.9212 1.11613C11.7876 1.24674 11.6817 1.40186 11.6094 1.57261C11.5371 1.74336 11.5 1.92638 11.5 2.11121V5.61441C7.54688 5.5187 3.22719 4.81778 0 0V1.40747C0 7.92829 5.03125 13.2908 11.5 13.9917Z" fill="#F21673"/>
</svg>
