<svg width="16" height="16" viewBox="0 0 16 16" fill="#586A84" id="icon-programs" xmlns="http://www.w3.org/2000/svg"><mask id="mask0_2229_4406" style="mask-type:alpha" maskUnits="userSpaceOnUse" x="0" y="0" width="16" height="16"><rect width="16" height="16"/></mask><g mask="url(#mask0_2229_4406)"><path d="M7.63636 11.6364C8.54545 11.6364 9.3183 11.3183 9.95491 10.6822C10.5915 10.0461 10.9096 9.27321 10.9091 8.36364V5.09091H7.63636C6.72727 5.09091 5.95467 5.40921 5.31855 6.04582C4.68242 6.68242 4.36412 7.45503 4.36364 8.36364C4.36364 8.67879 4.40606 8.98182 4.49091 9.27273C4.57576 9.56364 4.70303 9.84242 4.87273 10.1091L4.58182 10.4C4.44848 10.5333 4.38182 10.703 4.38182 10.9091C4.38182 11.1152 4.44848 11.2848 4.58182 11.4182C4.71515 11.5515 4.88485 11.6182 5.09091 11.6182C5.29697 11.6182 5.46667 11.5515 5.6 11.4182L5.89091 11.1273C6.15758 11.297 6.43636 11.4242 6.72727 11.5091C7.01818 11.5939 7.32121 11.6364 7.63636 11.6364ZM8 16L5.49091 14.0364L2.34545 13.6545L1.96364 10.5091L0 8L1.96364 5.49091L2.34545 2.34545L5.49091 1.96364L8 0L10.5091 1.96364L13.6545 2.34545L14.0364 5.49091L16 8L14.0364 10.5091L13.6545 13.6545L10.5091 14.0364L8 16ZM8.50909 8.50909C8.64242 8.36364 8.70909 8.19103 8.70909 7.99127C8.70909 7.79152 8.64242 7.62473 8.50909 7.49091C8.37576 7.35758 8.20921 7.29091 8.00945 7.29091C7.8097 7.29091 7.63685 7.35758 7.49091 7.49091L6.47273 8.50909C6.32727 8.65455 6.25455 8.82739 6.25455 9.02764C6.25455 9.22788 6.32727 9.40049 6.47273 9.54545C6.61818 9.69091 6.79103 9.76364 6.99127 9.76364C7.19152 9.76364 7.35806 9.69091 7.49091 9.54545L8.50909 8.50909Z"/></g></svg>