<svg width="17" height="19" viewBox="0 0 17 19" fill="#586A84" id="icon-contacts" xmlns="http://www.w3.org/2000/svg"><path fill-rule="evenodd" clip-rule="evenodd" d="M6.62874 0.897477H11.9174C12.5834 0.895783 13.2432 1.02532 13.8591 1.27869C14.475 1.53207 15.0349 1.9043 15.5069 2.37414C15.9789 2.84398 16.3537 3.40221 16.6099 4.01695C16.8661 4.63168 16.9986 5.29086 17 5.95684V13.0176C17.0005 13.6819 16.87 14.3398 16.616 14.9537C16.3621 15.5675 15.9897 16.1254 15.5201 16.5952C15.0504 17.0651 14.4928 17.4378 13.8791 17.692C13.2654 17.9463 12.6075 18.0771 11.9432 18.077H6.65451C5.34916 18.0769 4.09452 17.5715 3.15358 16.6667C2.21264 15.762 1.65845 14.5281 1.60718 13.2238H0.92C0.749139 13.2238 0.585277 13.1559 0.46446 13.0351C0.343643 12.9143 0.275769 12.7504 0.275769 12.5795C0.275769 12.4087 0.343643 12.2448 0.46446 12.124C0.585277 12.0032 0.749139 11.9353 0.92 11.9353H1.57282V7.04773H0.894231C0.72337 7.04773 0.559507 6.97986 0.438691 6.85904C0.317874 6.73823 0.25 6.57436 0.25 6.4035C0.25 6.23264 0.317874 6.06878 0.438691 5.94796C0.559507 5.82715 0.72337 5.75927 0.894231 5.75927H1.58141C1.63136 4.4537 2.18486 3.21818 3.12585 2.31178C4.06684 1.40538 5.32222 0.89852 6.62874 0.897477ZM10.7555 4.52878C10.3994 4.36029 10.0103 4.27301 9.61626 4.27325C8.91196 4.27321 8.23639 4.55245 7.73768 5.04976C7.4274 5.35866 7.19811 5.73933 7.07011 6.15803C6.94212 6.57673 6.91937 7.02054 7.0039 7.45014C7.08843 7.87973 7.27761 8.28184 7.55469 8.62084C7.83176 8.95984 8.18818 9.22527 8.59236 9.39359C8.9559 9.54479 9.34844 9.61349 9.74172 9.59475C10.135 9.576 10.5192 9.47028 10.8667 9.28519C11.2142 9.1001 11.5164 8.84025 11.7514 8.52435C11.9864 8.20845 12.1484 7.84437 12.2258 7.45832C12.3036 7.07208 12.2945 6.67338 12.1994 6.29105C12.1042 5.90872 11.9253 5.5523 11.6756 5.24753C11.4259 4.94277 11.1117 4.69727 10.7555 4.52878ZM12.1663 14.0229C12.2871 14.1437 12.4509 14.2116 12.6218 14.2116C12.792 14.2094 12.9537 14.1408 13.074 14.0204C13.1944 13.9001 13.263 13.7375 13.2652 13.5674C13.2652 11.7206 11.3342 10.3462 9.61626 10.3462C7.90003 10.3462 5.97592 11.7206 5.97592 13.5674C5.97592 13.7382 6.0438 13.9021 6.16461 14.0229C6.28543 14.1437 6.44929 14.2116 6.62015 14.2116C6.79102 14.2116 6.95488 14.1437 7.07569 14.0229C7.19651 13.9021 7.26439 13.7382 7.26439 13.5674C7.26439 12.4936 8.55199 11.6347 9.61626 11.6347C10.6805 11.6347 11.9776 12.528 11.9776 13.5674C11.9776 13.7382 12.0455 13.9021 12.1663 14.0229ZM10.5945 7.90165C10.8506 7.6423 10.9932 7.29182 10.9909 6.92732C10.9887 6.56282 10.8417 6.21415 10.5823 5.95802C10.323 5.70189 9.97249 5.55927 9.60798 5.56155C9.24348 5.56383 8.89481 5.71081 8.63868 5.97016C8.38255 6.22952 8.23994 6.58 8.24221 6.9445C8.24449 7.309 8.39148 7.65767 8.65083 7.9138C8.91018 8.16993 9.26066 8.31255 9.62516 8.31027C9.98967 8.30799 10.3383 8.16101 10.5945 7.90165Z"/></svg>