<svg width="16" height="16" viewBox="0 0 16 16" fill="#586A84" id="icon-compliance" xmlns="http://www.w3.org/2000/svg"><mask id="mask0_2229_4420" style="mask-type:alpha" maskUnits="userSpaceOnUse" x="0" y="0" width="16" height="16"><rect width="16" height="16"/></mask><g mask="url(#mask0_2229_4420)"><path fill-rule="evenodd" clip-rule="evenodd" d="M1.90625 5.65423V8.09039C1.90625 9.81275 1.90625 10.6745 2.4416 11.2093C2.83503 11.6033 3.4051 11.7075 4.36494 11.7349C4.3668 11.2735 4.53209 10.8277 4.83146 10.4766C4.84909 10.4561 4.85975 10.4305 4.86192 10.4035C4.89883 9.94013 5.09965 9.50505 5.42836 9.17634C5.75706 8.84763 6.19214 8.64681 6.65554 8.6099C6.68251 8.60774 6.70809 8.59707 6.72862 8.57945C7.08235 8.27802 7.5319 8.11246 7.99664 8.11246C8.46138 8.11246 8.91093 8.27802 9.26466 8.57945C9.28519 8.59707 9.31078 8.60774 9.33774 8.6099C9.80103 8.64695 10.236 8.84783 10.5645 9.17653C10.8931 9.50522 11.0939 9.94022 11.1308 10.4035C11.133 10.4305 11.1436 10.4561 11.1612 10.4766C11.4608 10.8276 11.6263 11.2734 11.6283 11.7349C12.5882 11.7075 13.1582 11.6033 13.5517 11.2093C14.087 10.6745 14.087 9.81275 14.087 8.09039V5.65423C14.087 3.93187 14.087 3.07008 13.5517 2.53535C13.0169 2 12.1552 2 10.4328 2H5.56048C3.83812 2 2.97633 2 2.4416 2.53535C1.90625 3.07008 1.90625 3.93187 1.90625 5.65423ZM5.84653 4.11316C5.76087 4.19883 5.71274 4.31501 5.71274 4.43616C5.71274 4.5573 5.76087 4.67349 5.84653 4.75915C5.93219 4.84481 6.04838 4.89294 6.16952 4.89294H9.82376C9.9449 4.89294 10.0611 4.84481 10.1467 4.75915C10.2324 4.67349 10.2805 4.5573 10.2805 4.43616C10.2805 4.31501 10.2324 4.19883 10.1467 4.11316C10.0611 4.0275 9.9449 3.97938 9.82376 3.97938H6.16952C6.04838 3.97938 5.93219 4.0275 5.84653 4.11316ZM4.62845 6.2448C4.71412 6.15914 4.8303 6.11101 4.95145 6.11101H11.0418C11.163 6.11101 11.2792 6.15914 11.3648 6.2448C11.4505 6.33046 11.4986 6.44665 11.4986 6.56779C11.4986 6.68894 11.4505 6.80512 11.3648 6.89078C11.2792 6.97645 11.163 7.02457 11.0418 7.02457H4.95145C4.8303 7.02457 4.71412 6.97645 4.62845 6.89078C4.54279 6.80512 4.49467 6.68894 4.49467 6.56779C4.49467 6.44665 4.54279 6.33046 4.62845 6.2448ZM7.99962 9.02588C8.24744 9.02588 8.48714 9.11425 8.67565 9.27512C8.84245 9.41724 9.04921 9.50312 9.26764 9.52056C9.51453 9.5402 9.74634 9.64719 9.92147 9.82231C10.0966 9.99744 10.2036 10.2293 10.2232 10.4761C10.2407 10.6946 10.3265 10.9019 10.4687 11.0687C10.6294 11.2572 10.7176 11.4968 10.7176 11.7445C10.7176 11.9921 10.6294 12.2317 10.4687 12.4202C10.3268 12.5871 10.2411 12.7944 10.2238 13.0128C10.2042 13.2598 10.0971 13.4917 9.92185 13.6668C9.74659 13.8419 9.51464 13.9489 9.26764 13.9684C9.04921 13.9858 8.84184 14.0717 8.67505 14.2138C8.48662 14.3744 8.24717 14.4625 7.99962 14.4625C7.75208 14.4625 7.51262 14.3744 7.3242 14.2138C7.15732 14.0719 6.94964 13.986 6.7316 13.969C6.48451 13.9495 6.25248 13.8424 6.07721 13.6672C5.90194 13.4919 5.79493 13.2599 5.77541 13.0128C5.75836 12.7948 5.67248 12.5871 5.52997 12.4202C5.36943 12.2318 5.28125 11.9923 5.28125 11.7448C5.28125 11.4972 5.36943 11.2578 5.52997 11.0693C5.67187 10.9019 5.75836 10.6948 5.77541 10.4768C5.79491 10.2298 5.90184 9.9978 6.07698 9.82255C6.25212 9.64729 6.48401 9.54022 6.73099 9.52056C6.94943 9.50312 7.1568 9.41724 7.32359 9.27512C7.5121 9.11425 7.7518 9.02588 7.99962 9.02588ZM9.33024 11.3248C9.30487 11.3795 9.26889 11.4287 9.2244 11.4695L7.91923 12.6876C7.83463 12.7666 7.72317 12.8106 7.6074 12.8106C7.49163 12.8106 7.38017 12.7666 7.29557 12.6876L6.77363 12.2003C6.68646 12.1173 6.63559 12.0032 6.63208 11.8829C6.62857 11.7626 6.67271 11.6457 6.75489 11.5577C6.83708 11.4698 6.95067 11.4178 7.07096 11.4131C7.19126 11.4085 7.30853 11.4515 7.39728 11.5328L7.60801 11.7289L8.60074 10.802C8.64445 10.7604 8.69597 10.7278 8.75232 10.7062C8.80868 10.6846 8.86876 10.6744 8.92909 10.6761C8.98942 10.6779 9.0488 10.6916 9.10381 10.7164C9.15881 10.7413 9.20835 10.7768 9.24955 10.8209C9.29075 10.865 9.32281 10.9168 9.34386 10.9734C9.36492 11.0299 9.37456 11.0901 9.37222 11.1504C9.36988 11.2107 9.35561 11.27 9.33024 11.3248Z"/></g></svg>