<svg width="16" height="16" viewBox="0 0 16 16" fill="#586A84" id="icon-service" xmlns="http://www.w3.org/2000/svg">
<path d="M3.33333 15C2.96667 15 2.65289 14.8755 2.392 14.6265C2.13111 14.3774 2.00044 14.0777 2 13.7273V10.5455C2 9.66515 2.32511 8.91488 2.97533 8.29464C3.62556 7.67439 4.41156 7.36406 5.33333 7.36364H6V2.27273C6 1.92273 6.13067 1.62321 6.392 1.37418C6.65333 1.12515 6.96711 1.00042 7.33333 1H8.66667C9.03333 1 9.34733 1.12473 9.60867 1.37418C9.87 1.62364 10.0004 1.92315 10 2.27273V7.36364H10.6667C11.5889 7.36364 12.3751 7.67397 13.0253 8.29464C13.6756 8.9153 14.0004 9.66558 14 10.5455V13.7273C14 14.0773 13.8696 14.377 13.6087 14.6265C13.3478 14.8759 13.0338 15.0004 12.6667 15H3.33333ZM3.33333 13.7273H4.66667V11.8182C4.66667 11.6379 4.73067 11.4868 4.85867 11.3651C4.98667 11.2433 5.14489 11.1822 5.33333 11.1818C5.52222 11.1818 5.68067 11.2429 5.80867 11.3651C5.93667 11.4873 6.00044 11.6383 6 11.8182V13.7273H7.33333V11.8182C7.33333 11.6379 7.39733 11.4868 7.52533 11.3651C7.65333 11.2433 7.81156 11.1822 8 11.1818C8.18889 11.1818 8.34733 11.2429 8.47533 11.3651C8.60333 11.4873 8.66711 11.6383 8.66667 11.8182V13.7273H10V11.8182C10 11.6379 10.064 11.4868 10.192 11.3651C10.32 11.2433 10.4782 11.1822 10.6667 11.1818C10.8556 11.1818 11.014 11.2429 11.142 11.3651C11.27 11.4873 11.3338 11.6383 11.3333 11.8182V13.7273H12.6667V10.5455C12.6667 10.0152 12.4722 9.56439 12.0833 9.19318C11.6944 8.82197 11.2222 8.63636 10.6667 8.63636H5.33333C4.77778 8.63636 4.30556 8.82197 3.91667 9.19318C3.52778 9.56439 3.33333 10.0152 3.33333 10.5455V13.7273Z" />
</svg>
