<svg width="16" height="16" viewBox="0 0 16 16" fill="#586A84" id="icon-accounts" xmlns="http://www.w3.org/2000/svg"><path d="M8 0C8.84763 0 9.67623 0.234596 10.381 0.674121C11.0858 1.11365 11.6351 1.73836 11.9595 2.46927C12.2839 3.20017 12.3687 4.00444 12.2034 4.78036C12.038 5.55629 11.6298 6.26902 11.0305 6.82843C10.4311 7.38784 9.66745 7.7688 8.8361 7.92314C8.00475 8.07748 7.14304 7.99827 6.35993 7.69552C5.57682 7.39277 4.90748 6.88008 4.43656 6.22228C3.96564 5.56448 3.71429 4.79113 3.71429 4L3.71857 3.8264C3.7665 2.7966 4.23852 1.82382 5.03619 1.11093C5.83386 0.398033 6.8956 5.9554e-05 8 0ZM9.71429 9.6C10.8509 9.6 11.941 10.0214 12.7447 10.7716C13.5485 11.5217 14 12.5391 14 13.6V14.4C14 14.8243 13.8194 15.2313 13.4979 15.5314C13.1764 15.8314 12.7404 16 12.2857 16H3.71429C3.25963 16 2.82359 15.8314 2.5021 15.5314C2.18061 15.2313 2 14.8243 2 14.4V13.6C2 12.5391 2.45153 11.5217 3.25526 10.7716C4.05898 10.0214 5.14907 9.6 6.28571 9.6H9.71429Z" /></svg>