<svg width="16" height="16" viewBox="0 0 16 16" fill="#586A84" id="icon-service-areas" xmlns="http://www.w3.org/2000/svg"><mask id="mask0_2229_4413" style="mask-type:alpha" maskUnits="userSpaceOnUse" x="0" y="0" width="16" height="16"><rect width="16" height="16"/></mask><g mask="url(#mask0_2229_4413)"><path d="M2 12.6667C2 13.0203 2.14048 13.3594 2.39052 13.6095C2.64057 13.8595 2.97971 14 3.33333 14H12.6667C13.0203 14 13.3594 13.8595 13.6095 13.6095C13.8595 13.3594 14 13.0203 14 12.6667V3.33333C14 2.97971 13.8595 2.64057 13.6095 2.39052C13.3594 2.14048 13.0203 2 12.6667 2H3.33333C2.97971 2 2.64057 2.14048 2.39052 2.39052C2.14048 2.64057 2 2.97971 2 3.33333V12.6667ZM8 4H12V8H10.6667V5.33333H8V4ZM4 8H5.33333V10.6667H8V12H4V8Z"/></g></svg>