<svg width="121" height="135" viewBox="0 0 121 135" fill="none" xmlns="http://www.w3.org/2000/svg">
<path d="M120.999 5.92236V129.351C120.999 130.85 120.403 132.286 119.344 133.346C118.285 134.405 116.848 135 115.35 135H27.0005C25.5023 135 24.0655 134.405 23.0061 133.346C21.9467 132.286 21.3516 130.85 21.3516 129.351V42.4709L52.4206 0.273438H115.35C116.848 0.273438 118.285 0.868591 119.344 1.92797C120.403 2.98735 120.999 4.42417 120.999 5.92236Z" fill="#EDEEEF"/>
<path d="M52.42 0.330078V36.5679C52.42 38.0661 51.8249 39.5029 50.7655 40.5623C49.7061 41.6217 48.2693 42.2168 46.7711 42.2168H21.4922L52.42 0.330078Z" fill="#CFD0D1"/>
<path d="M82.8132 77.438H5.64892C2.52911 77.438 0 79.9671 0 83.0869V111.444C0 114.564 2.52911 117.093 5.64892 117.093H82.8132C85.933 117.093 88.4621 114.564 88.4621 111.444V83.0869C88.4621 79.9671 85.933 77.438 82.8132 77.438Z" fill="#FF3717"/>
<path d="M28.6958 99.5534V105.654H23.7812V88.9052H30.56C31.8793 88.834 33.1987 89.0458 34.4295 89.5265C35.3054 89.9232 36.043 90.5723 36.5478 91.3907C37.0587 92.2434 37.3227 93.2212 37.3104 94.2151C37.3436 94.9363 37.2192 95.656 36.9461 96.3242C36.6729 96.9925 36.2575 97.5932 35.7287 98.0847C34.5514 99.1088 33.0221 99.6355 31.4638 99.5534H28.6958ZM28.6958 95.9663H30.334C31.7745 95.9663 32.4806 95.4014 32.4806 94.2999C32.4806 93.1983 31.831 92.7182 30.5035 92.7182H28.6958V95.9663ZM39.1463 105.654V88.9052H45.3319C46.4592 88.8203 47.5906 89.001 48.6355 89.4327C49.6803 89.8643 50.6093 90.5349 51.348 91.3907C52.6788 93.0236 53.3891 95.0746 53.3534 97.1808C53.4726 99.4183 52.7008 101.612 51.2068 103.282C50.4975 104.068 49.6236 104.688 48.6472 105.099C47.6708 105.509 46.6159 105.698 45.5578 105.654H39.1463ZM44.0609 101.785H45.3319C45.7546 101.777 46.1678 101.659 46.5299 101.44C46.8919 101.222 47.1899 100.912 47.3938 100.542C47.9854 99.5241 48.2698 98.3568 48.2128 97.1808C48.235 96.0817 47.9826 94.9944 47.4785 94.0174C47.2805 93.6197 46.9737 93.2865 46.5936 93.0564C46.2136 92.8264 45.776 92.7091 45.3319 92.7182H44.0609V101.785ZM65.4138 99.3839H60.2168V105.654H55.4435V88.9052H66.9955V92.8876H60.2168V95.7121H65.4138V99.3839Z" fill="#EDEEEF"/>
</svg>
