<svg width="16" height="16" viewBox="0 0 16 16" fill="#586A84" id="icon-jobs" xmlns="http://www.w3.org/2000/svg"><mask id="mask0_2229_4362" style="mask-type:alpha" maskUnits="userSpaceOnUse" x="0" y="0" width="16" height="16"><rect width="16" height="16"/></mask><g mask="url(#mask0_2229_4362)"><path d="M10.0026 10.6667C10.1915 10.6667 10.3499 10.6027 10.4779 10.4747C10.6055 10.3472 10.6693 10.189 10.6693 10.0001V9.33341H11.3359C11.5248 9.33341 11.683 9.26941 11.8106 9.14141C11.9386 9.01386 12.0026 8.85564 12.0026 8.66675C12.0026 8.47786 11.9386 8.31941 11.8106 8.19141C11.683 8.06386 11.5248 8.00008 11.3359 8.00008H10.6693V7.33341C10.6693 7.14453 10.6055 6.98608 10.4779 6.85808C10.3499 6.73053 10.1915 6.66675 10.0026 6.66675C9.81371 6.66675 9.65549 6.73053 9.52794 6.85808C9.39994 6.98608 9.33594 7.14453 9.33594 7.33341V8.00008H8.66927C8.48038 8.00008 8.32216 8.06386 8.1946 8.19141C8.0666 8.31941 8.0026 8.47786 8.0026 8.66675C8.0026 8.85564 8.0666 9.01386 8.1946 9.14141C8.32216 9.26941 8.48038 9.33341 8.66927 9.33341H9.33594V10.0001C9.33594 10.189 9.39994 10.3472 9.52794 10.4747C9.65549 10.6027 9.81371 10.6667 10.0026 10.6667ZM2.66927 13.3334C2.3026 13.3334 1.98883 13.203 1.72794 12.9421C1.4666 12.6807 1.33594 12.3667 1.33594 12.0001V4.00008C1.33594 3.63341 1.4666 3.31964 1.72794 3.05875C1.98883 2.79741 2.3026 2.66675 2.66927 2.66675H6.11927C6.29705 2.66675 6.4666 2.70008 6.62794 2.76675C6.78883 2.83341 6.93038 2.92786 7.0526 3.05008L8.0026 4.00008H13.3359C13.7026 4.00008 14.0166 4.13075 14.2779 4.39208C14.5388 4.65297 14.6693 4.96675 14.6693 5.33341V12.0001C14.6693 12.3667 14.5388 12.6807 14.2779 12.9421C14.0166 13.203 13.7026 13.3334 13.3359 13.3334H2.66927Z" /></g></svg>