<svg width="16" height="16" viewBox="0 0 16 16" fill="none" xmlns="http://www.w3.org/2000/svg">
<mask id="mask0_1845_243" style="mask-type:alpha" maskUnits="userSpaceOnUse" x="0" y="0" width="16" height="16">
<rect width="16" height="16" fill="#D9D9D9"/>
</mask>
<g mask="url(#mask0_1845_243)">
<path d="M7.9974 2.66663C7.80851 2.66663 7.65028 2.60263 7.52273 2.47463C7.39473 2.34707 7.33073 2.18885 7.33073 1.99996V1.33329C7.33073 1.1444 7.39473 0.985959 7.52273 0.857959C7.65028 0.730404 7.80851 0.666626 7.9974 0.666626C8.18629 0.666626 8.34473 0.730404 8.47273 0.857959C8.60029 0.985959 8.66406 1.1444 8.66406 1.33329V1.99996C8.66406 2.18885 8.60029 2.34707 8.47273 2.47463C8.34473 2.60263 8.18629 2.66663 7.9974 2.66663ZM7.9974 15.3333C7.80851 15.3333 7.65028 15.2693 7.52273 15.1413C7.39473 15.0137 7.33073 14.8555 7.33073 14.6666V14C7.33073 13.8111 7.39473 13.6528 7.52273 13.5253C7.65028 13.3973 7.80851 13.3333 7.9974 13.3333C8.18629 13.3333 8.34473 13.3973 8.47273 13.5253C8.60029 13.6528 8.66406 13.8111 8.66406 14V14.6666C8.66406 14.8555 8.60029 15.0137 8.47273 15.1413C8.34473 15.2693 8.18629 15.3333 7.9974 15.3333ZM13.9974 8.66663C13.8085 8.66663 13.6503 8.60263 13.5227 8.47463C13.3947 8.34707 13.3307 8.18885 13.3307 7.99996C13.3307 7.81107 13.3947 7.65263 13.5227 7.52463C13.6503 7.39707 13.8085 7.33329 13.9974 7.33329H14.6641C14.853 7.33329 15.0112 7.39707 15.1387 7.52463C15.2667 7.65263 15.3307 7.81107 15.3307 7.99996C15.3307 8.18885 15.2667 8.34707 15.1387 8.47463C15.0112 8.60263 14.853 8.66663 14.6641 8.66663H13.9974ZM1.33073 8.66663C1.14184 8.66663 0.983618 8.60263 0.856063 8.47463C0.728062 8.34707 0.664062 8.18885 0.664062 7.99996C0.664062 7.81107 0.728062 7.65263 0.856063 7.52463C0.983618 7.39707 1.14184 7.33329 1.33073 7.33329H1.9974C2.18628 7.33329 2.34473 7.39707 2.47273 7.52463C2.60028 7.65263 2.66406 7.81107 2.66406 7.99996C2.66406 8.18885 2.60028 8.34707 2.47273 8.47463C2.34473 8.60263 2.18628 8.66663 1.9974 8.66663H1.33073ZM11.9974 3.99996C11.8752 3.87774 11.8141 3.72485 11.8141 3.54129C11.8141 3.35818 11.8752 3.19996 11.9974 3.06663L12.2307 2.81663C12.353 2.68329 12.5085 2.61663 12.6974 2.61663C12.8863 2.61663 13.0474 2.68329 13.1807 2.81663C13.3141 2.94996 13.3807 3.11107 13.3807 3.29996C13.3807 3.48885 13.3141 3.64996 13.1807 3.78329L12.9307 4.01663C12.7974 4.13885 12.6418 4.19996 12.4641 4.19996C12.2863 4.19996 12.1307 4.13329 11.9974 3.99996ZM2.81406 13.1833C2.68073 13.05 2.61406 12.8888 2.61406 12.7C2.61406 12.5111 2.68073 12.35 2.81406 12.2166L3.06406 11.9833C3.1974 11.8611 3.35295 11.8 3.53073 11.8C3.70851 11.8 3.86406 11.8666 3.9974 12C4.11962 12.1222 4.18362 12.2777 4.1894 12.4666C4.19473 12.6555 4.13073 12.8111 3.9974 12.9333L3.76406 13.1833C3.64184 13.3166 3.48628 13.3833 3.2974 13.3833C3.10851 13.3833 2.9474 13.3166 2.81406 13.1833ZM12.2141 13.1833L11.9807 12.9333C11.8585 12.8 11.7974 12.6444 11.7974 12.4666C11.7974 12.2888 11.8641 12.1333 11.9974 12C12.1196 11.8777 12.2752 11.8137 12.4641 11.808C12.653 11.8026 12.8085 11.8666 12.9307 12L13.1807 12.2333C13.3141 12.3555 13.3807 12.5111 13.3807 12.7C13.3807 12.8888 13.3141 13.05 13.1807 13.1833C13.0474 13.3166 12.8863 13.3833 12.6974 13.3833C12.5085 13.3833 12.3474 13.3166 12.2141 13.1833ZM3.06406 3.99996L2.81406 3.76663C2.68073 3.6444 2.61406 3.48885 2.61406 3.29996C2.61406 3.11107 2.68073 2.94996 2.81406 2.81663C2.9474 2.68329 3.10851 2.61663 3.2974 2.61663C3.48628 2.61663 3.6474 2.68329 3.78073 2.81663L4.01406 3.06663C4.13628 3.19996 4.1974 3.35552 4.1974 3.53329C4.1974 3.71107 4.13073 3.86663 3.9974 3.99996C3.87517 4.12218 3.72228 4.18329 3.53873 4.18329C3.35562 4.18329 3.1974 4.12218 3.06406 3.99996ZM7.9974 12C6.88628 12 5.94184 11.6111 5.16406 10.8333C4.38628 10.0555 3.9974 9.11107 3.9974 7.99996C3.9974 6.88885 4.38628 5.9444 5.16406 5.16663C5.94184 4.38885 6.88628 3.99996 7.9974 3.99996C9.10851 3.99996 10.053 4.38885 10.8307 5.16663C11.6085 5.9444 11.9974 6.88885 11.9974 7.99996C11.9974 9.11107 11.6085 10.0555 10.8307 10.8333C10.053 11.6111 9.10851 12 7.9974 12Z" fill="white"/>
</g>
</svg>
