<svg width="16" height="16" viewBox="0 0 16 16" fill="#586A84" id="icon-survey-management" xmlns="http://www.w3.org/2000/svg"><mask id="mask0_2229_4443" style="mask-type:alpha" maskUnits="userSpaceOnUse" x="0" y="0" width="16" height="16"><rect width="16" height="16"/></mask><g mask="url(#mask0_2229_4443)"><path fill-rule="evenodd" clip-rule="evenodd" d="M2 1.66666C2 1.29848 2.31603 1 2.70588 1H11.8824C12.2722 1 12.5882 1.29848 12.5882 1.66666V2.33333C12.5882 1.96514 12.9043 1.66666 13.2941 1.66666C13.684 1.66666 14 1.96514 14 2.33333V3.66665C14 4.03484 13.684 4.33332 13.2941 4.33332C12.9043 4.33332 12.5882 4.03484 12.5882 3.66665V4.33332C12.5882 4.7015 12.2722 4.99998 11.8824 4.99998H8.35294V5.66664H9.41177C9.80161 5.66664 10.1176 5.96512 10.1176 6.33331C10.1176 6.70149 9.80161 6.99997 9.41177 6.99997H5.88235C5.49251 6.99997 5.17647 6.70149 5.17647 6.33331C5.17647 5.96512 5.49251 5.66664 5.88235 5.66664H6.94118V4.99998H2.70588C2.31603 4.99998 2 4.7015 2 4.33332V1.66666ZM11.1765 3.66665V2.33333H3.41176V3.66665H11.1765ZM7.64706 7.66663C7.88307 7.66663 8.10347 7.77803 8.23439 7.9635L12.4697 13.9635C12.6859 14.2698 12.5983 14.6837 12.2739 14.888C11.9495 15.0922 11.5113 15.0094 11.295 14.7031L8.35294 10.5351V14.3333C8.35294 14.7015 8.03691 14.9999 7.64706 14.9999C7.25721 14.9999 6.94118 14.7015 6.94118 14.3333V10.5351L3.99909 14.7031C3.78285 15.0094 3.34458 15.0922 3.02021 14.888C2.69584 14.6837 2.60819 14.2698 2.82444 13.9635L7.05973 7.9635C7.19065 7.77803 7.41105 7.66663 7.64706 7.66663Z"/></g></svg>