<svg width="16" height="16" viewBox="0 0 16 16" fill="#586A84" id="icon-email" xmlns="http://www.w3.org/2000/svg">
<mask id="mask0_2229_4349" style="mask-type:alpha" maskUnits="userSpaceOnUse" x="0" y="0" width="16" height="16">
<rect width="16" height="16" fill="#D9D9D9"/>
</mask>
<g mask="url(#mask0_2229_4349)">
<path d="M2.66927 13.3334C2.3026 13.3334 1.98883 13.203 1.72794 12.9421C1.4666 12.6807 1.33594 12.3667 1.33594 12.0001V4.00008C1.33594 3.63341 1.4666 3.31964 1.72794 3.05875C1.98883 2.79741 2.3026 2.66675 2.66927 2.66675H13.3359C13.7026 2.66675 14.0166 2.79741 14.2779 3.05875C14.5388 3.31964 14.6693 3.63341 14.6693 4.00008V12.0001C14.6693 12.3667 14.5388 12.6807 14.2779 12.9421C14.0166 13.203 13.7026 13.3334 13.3359 13.3334H2.66927ZM8.0026 8.55008C8.05816 8.55008 8.11638 8.54164 8.17727 8.52475C8.2386 8.5083 8.29705 8.48341 8.3526 8.45008L13.0693 5.50008C13.1582 5.44453 13.2248 5.37519 13.2693 5.29208C13.3137 5.20853 13.3359 5.11675 13.3359 5.01675C13.3359 4.79453 13.2415 4.62786 13.0526 4.51675C12.8637 4.40564 12.6693 4.41119 12.4693 4.53341L8.0026 7.33341L3.53594 4.53341C3.33594 4.41119 3.14149 4.4083 2.9526 4.52475C2.76372 4.64164 2.66927 4.80564 2.66927 5.01675C2.66927 5.12786 2.69149 5.22497 2.73594 5.30808C2.78038 5.39164 2.84705 5.45564 2.93594 5.50008L7.6526 8.45008C7.70816 8.48341 7.7666 8.5083 7.82794 8.52475C7.88883 8.54164 7.94705 8.55008 8.0026 8.55008Z"/>
</g>
</svg>
