<svg width="16" height="16" viewBox="0 0 16 16" fill="#586A84" id="icon-suspentions" xmlns="http://www.w3.org/2000/svg"><mask id="mask0_2229_4436" style="mask-type:alpha" maskUnits="userSpaceOnUse" x="0" y="0" width="16" height="16"><rect width="16" height="16"/></mask><g mask="url(#mask0_2229_4436)"><path d="M8 2C6.81331 2 5.65328 2.35189 4.66658 3.01118C3.67989 3.67047 2.91085 4.60754 2.45673 5.7039C2.0026 6.80025 1.88378 8.00665 2.11529 9.17054C2.3468 10.3344 2.91825 11.4035 3.75736 12.2426C4.59648 13.0818 5.66557 13.6532 6.82946 13.8847C7.99335 14.1162 9.19974 13.9974 10.2961 13.5433C11.3925 13.0891 12.3295 12.3201 12.9888 11.3334C13.6481 10.3467 14 9.18669 14 8C14 6.4087 13.3679 4.88258 12.2426 3.75736C11.1174 2.63214 9.5913 2 8 2ZM11.3333 8.66666H4.66667V7.33333H11.3333V8.66666Z"/></g></svg>