<svg width="16" height="16" viewBox="0 0 16 16" fill="#586A84" id="icon-estimates" xmlns="http://www.w3.org/2000/svg"><mask id="mask0_2229_4399" style="mask-type:alpha" maskUnits="userSpaceOnUse" x="0" y="0" width="16" height="16"><rect width="16" height="16"/></mask><g mask="url(#mask0_2229_4399)"><path fill-rule="evenodd" clip-rule="evenodd" d="M2 2.4C2 2.0287 2.14588 1.6726 2.40554 1.41005C2.66521 1.1475 3.01739 1 3.38462 1H10.9603L14 4.07347V13.6C14 13.9713 13.8541 14.3274 13.5945 14.5899C13.3348 14.8525 12.9826 15 12.6154 15H3.38462C3.01739 15 2.66521 14.8525 2.40554 14.5899C2.14588 14.3274 2 13.9713 2 13.6V2.4ZM4.76923 4.73333H7.53846V5.66667H4.76923V4.73333ZM11.2308 7.53333H4.76923V8.46667H11.2308V7.53333ZM11.2308 10.3333H8.46154V11.2667H11.2308V10.3333Z"/></g></svg>