<svg width="104" height="135" viewBox="0 0 104 135" fill="none" xmlns="http://www.w3.org/2000/svg">
<path fill-rule="evenodd" clip-rule="evenodd" d="M86.3712 0H40.6563L0.288101 40.3603V117.879C0.288101 127.3 7.99603 135 17.4091 135H86.3712C95.7843 135 103.492 127.3 103.492 117.879V17.121C103.492 7.70001 95.784 0 86.3712 0Z" fill="#008BF5"/>
<path fill-rule="evenodd" clip-rule="evenodd" d="M40.7946 0L0.426422 40.3603H36.4353C38.8347 40.3603 40.7946 38.4083 40.7946 36.0086V0ZM96.7346 57.4813H3.75386C1.69379 57.4813 -0.00372314 59.1709 -0.00372314 61.2389V95.3496C-0.00372314 97.4173 1.69379 99.1148 3.75386 99.1148H96.7346C98.8023 99.1148 100.492 97.4173 100.492 95.3496V61.2389C100.492 59.1709 98.8023 57.4813 96.7346 57.4813Z" fill="#006FC4"/>
<path d="M37.7251 64.4447C32.656 64.4447 28.5322 68.5688 28.5322 73.6377V82.9579C28.5322 88.027 32.6563 92.1508 37.7251 92.1508C42.7945 92.1508 46.9183 88.0268 46.9183 82.9579V73.6377C46.9183 68.5686 42.7945 64.4447 37.7251 64.4447ZM42.559 82.9579C42.559 85.6231 40.3906 87.7916 37.7251 87.7916C35.0599 87.7916 32.8915 85.6231 32.8915 82.9579V73.6377C32.8915 70.9725 35.0599 68.804 37.7251 68.804C40.3906 68.804 42.559 70.9725 42.559 73.6377V82.9579ZM54.2173 73.6377V82.9579C54.2173 85.6231 56.3857 87.7916 59.0509 87.7916C61.7163 87.7916 63.8848 85.6231 63.8848 82.9579C63.8848 81.754 64.8606 80.7782 66.0646 80.7782C67.2685 80.7782 68.2441 81.754 68.2441 82.9579C68.2441 88.027 64.12 92.1508 59.0509 92.1508C53.9818 92.1508 49.858 88.0268 49.858 82.9579V73.6377C49.858 68.5686 53.9821 64.4447 59.0509 64.4447C64.1202 64.4447 68.2441 68.5688 68.2441 73.6377C68.2441 74.8416 67.2682 75.8174 66.0646 75.8174C64.8606 75.8174 63.8848 74.8416 63.8848 73.6377C63.8848 70.9725 61.7163 68.804 59.0509 68.804C56.3857 68.804 54.2173 70.9725 54.2173 73.6377ZM16.0289 64.4447H9.01545C7.81152 64.4447 6.83594 65.4206 6.83594 66.6242V89.9713C6.83594 91.1753 7.81179 92.1508 9.01545 92.1508H16.0289C21.098 92.1508 25.2218 88.0268 25.2218 82.9579V73.6377C25.222 68.5686 21.098 64.4447 16.0289 64.4447ZM20.8628 82.9579C20.8628 85.6231 18.6943 87.7916 16.0291 87.7916H11.1952V68.8038H16.0289C18.6941 68.8038 20.8625 70.9722 20.8625 73.6374V82.9579H20.8628ZM88.1943 88.8489C88.8142 89.8806 88.4804 91.2198 87.4483 91.8397C87.0969 92.0507 86.7098 92.1511 86.328 92.1511C85.5879 92.1511 84.8662 91.7741 84.4575 91.0938L79.3125 82.53L74.1675 91.0938C73.7588 91.7743 73.0368 92.1511 72.297 92.1511C71.9146 92.1511 71.5281 92.0507 71.1766 91.8397C70.1449 91.2198 69.8108 89.8806 70.4307 88.8489L76.7699 78.2978L70.4307 67.7467C69.8108 66.7149 70.1446 65.3758 71.1766 64.7559C72.2089 64.136 73.5476 64.47 74.1675 65.5018L79.3125 74.0656L84.4575 65.5018C85.0774 64.47 86.4163 64.136 87.4483 64.7559C88.4801 65.3758 88.8142 66.7149 88.1943 67.7467L81.8551 78.2978L88.1943 88.8489Z" fill="white"/>
</svg>
