<svg width="14" height="22" viewBox="0 0 14 22" fill="none" xmlns="http://www.w3.org/2000/svg">
<path d="M12.4412 14.4148C12.8685 13.4879 13.0557 12.4669 12.9851 11.4473C12.9145 10.4276 12.5886 9.44269 12.0377 8.58448C11.4867 7.72626 10.7289 7.0228 9.83488 6.53984C8.94089 6.05687 7.93998 5.81018 6.92568 5.82281C5.91138 5.83544 4.91681 6.10699 4.03494 6.61206C3.15307 7.11714 2.41269 7.83927 1.88299 8.71094C1.3533 9.58261 1.05158 10.5754 1.00605 11.5964C0.960515 12.6175 1.17265 13.6335 1.62262 14.5495M7.00018 3.22727C7.2275 3.22727 7.44551 3.13628 7.60625 2.97432C7.76699 2.81236 7.8573 2.59269 7.8573 2.36364C7.8573 2.13459 7.76699 1.91492 7.60625 1.75295C7.44551 1.59099 7.2275 1.5 7.00018 1.5C6.77286 1.5 6.55485 1.59099 6.3941 1.75295C6.23336 1.91492 6.14306 2.13459 6.14306 2.36364C6.14306 2.59269 6.23336 2.81236 6.3941 2.97432C6.55485 3.13628 6.77286 3.22727 7.00018 3.22727ZM7.00018 3.22727V5.81818M7.00018 18.7727C7.2275 18.7727 7.44551 18.8637 7.60625 19.0257C7.76699 19.1876 7.8573 19.4073 7.8573 19.6364C7.8573 19.8654 7.76699 20.0851 7.60625 20.247C7.44551 20.409 7.2275 20.5 7.00018 20.5C6.77286 20.5 6.55485 20.409 6.3941 20.247C6.23336 20.0851 6.14306 19.8654 6.14306 19.6364C6.14306 19.4073 6.23336 19.1876 6.3941 19.0257C6.55485 18.8637 6.77286 18.7727 7.00018 18.7727ZM7.00018 18.7727C11.2901 18.7727 12.1429 17.0351 12.1429 17.0351L13 14.4545C13 14.4545 12.8791 13.8172 12.5714 14.0227C11.8155 14.5271 10.0464 15.3182 7.00018 15.3182C4.06369 15.3182 2.22603 14.5331 1.42891 14.0227C1.06207 13.7878 1.00036 14.4545 1.00036 14.4545L1.85747 17.0351C1.85747 17.0351 2.71031 18.7727 7.00018 18.7727ZM4.42883 12.7273C4.65615 12.7273 4.87416 12.6363 5.0349 12.4743C5.19564 12.3124 5.28594 12.0927 5.28594 11.8636C5.28594 11.6346 5.19564 11.4149 5.0349 11.253C4.87416 11.091 4.65615 11 4.42883 11C4.2015 11 3.98349 11.091 3.82275 11.253C3.66201 11.4149 3.57171 11.6346 3.57171 11.8636C3.57171 12.0927 3.66201 12.3124 3.82275 12.4743C3.98349 12.6363 4.2015 12.7273 4.42883 12.7273ZM9.57153 12.7273C9.79885 12.7273 10.0169 12.6363 10.1776 12.4743C10.3383 12.3124 10.4286 12.0927 10.4286 11.8636C10.4286 11.6346 10.3383 11.4149 10.1776 11.253C10.0169 11.091 9.79885 11 9.57153 11C9.34421 11 9.1262 11.091 8.96546 11.253C8.80472 11.4149 8.71441 11.6346 8.71441 11.8636C8.71441 12.0927 8.80472 12.3124 8.96546 12.4743C9.1262 12.6363 9.34421 12.7273 9.57153 12.7273Z" stroke="#D80E0E" stroke-width="1.7"/>
</svg>
