<svg width="16" height="16" viewBox="0 0 16 16" fill="none" xmlns="http://www.w3.org/2000/svg">
<mask id="mask0_1845_246" style="mask-type:alpha" maskUnits="userSpaceOnUse" x="0" y="0" width="16" height="16">
<rect width="16" height="16" fill="#D9D9D9"/>
</mask>
<g mask="url(#mask0_1845_246)">
<path d="M8 14C6.32222 14 4.90267 13.4193 3.74133 12.258C2.58044 11.0971 2 9.67779 2 8.00002C2 6.46668 2.5 5.13602 3.5 4.00802C4.5 2.88046 5.77778 2.22224 7.33333 2.03335C7.61111 2.00002 7.82778 2.10002 7.98333 2.33335C8.13889 2.56668 8.13333 2.81113 7.96667 3.06668C7.77778 3.35557 7.636 3.66113 7.54133 3.98335C7.44711 4.30557 7.4 4.64446 7.4 5.00002C7.4 6.00002 7.75 6.85002 8.45 7.55002C9.15 8.25002 10 8.60002 11 8.60002C11.3444 8.60002 11.6862 8.55002 12.0253 8.45002C12.364 8.35002 12.6667 8.21113 12.9333 8.03335C13.1667 7.87779 13.4056 7.86935 13.65 8.00802C13.8944 8.14713 14 8.36668 13.9667 8.66668C13.8111 10.2 13.1584 11.4722 12.0087 12.4834C10.8584 13.4945 9.52222 14 8 14Z" fill="white"/>
</g>
</svg>
